<svg width="20" height="24" viewBox="0 0 20 24" fill="none" xmlns="http://www.w3.org/2000/svg">
    <path d="M9.57277 0C4.46285 0.260888 0.399902 4.48671 0.399902 9.66149C0.399902 12.3648 1.50867 14.8091 3.29624 16.5645L3.29238 16.5644L10.0754 24L16.8585 16.5644L16.8521 16.5645C18.6396 14.8091 19.7484 12.3648 19.7484 9.66149C19.7484 6.41967 18.1539 3.55028 15.7063 1.79482C15.4355 2.09141 15.1682 2.41467 14.9032 2.75696C13.5695 4.44971 11.8881 8.29688 8.65648 14.9653H7.46532C11.1586 6.34765 11.8254 4.29582 11.8254 2.55177C11.8254 0.722863 10.8394 0.0943726 9.57277 0Z" fill="#FFF"/>
</svg>
