<svg width="24" height="24" viewBox="0 0 24 24" fill="none" xmlns="http://www.w3.org/2000/svg">
    <path fill-rule="evenodd" clip-rule="evenodd" d="M4.46855 0H9.86856V4.2H14.6686V0H20.0686V4.2L24.2686 4.2V9.6H20.0686V14.4H24.2686V19.8H20.0686V24H14.6686V19.8H9.86856V24H4.46855V19.8H0.268555V14.4H4.46855V9.6H0.268555V4.2L4.46855 4.2V0ZM12.2686 15.6C14.2568 15.6 15.8686 13.9882 15.8686 12C15.8686 10.0118 14.2568 8.4 12.2686 8.4C10.2803 8.4 8.66856 10.0118 8.66856 12C8.66856 13.9882 10.2803 15.6 12.2686 15.6Z" fill="#FFF"/>
</svg>
