<svg width="24" height="18" viewBox="0 0 24 18" fill="none" xmlns="http://www.w3.org/2000/svg">
    <path fill-rule="evenodd" clip-rule="evenodd" d="M12 18C18.6274 18 24 13.9706 24 9C24 4.02944 18.6274 0 12 0C5.37258 0 0 4.02944 0 9C0 13.9706 5.37258 18 12 18ZM8.4 9C8.4 10.6569 7.59411 12 6.6 12C5.60589 12 4.8 10.6569 4.8 9C4.8 7.34315 5.60589 6 6.6 6C7.59411 6 8.4 7.34315 8.4 9ZM18.6 9C18.6 10.6569 17.7941 12 16.8 12C15.8059 12 15 10.6569 15 9C15 7.34315 15.8059 6 16.8 6C17.7941 6 18.6 7.34315 18.6 9Z" fill="#FFF"/>
</svg>
