<svg width="290" height="374" viewBox="0 0 290 374" fill="none" xmlns="http://www.w3.org/2000/svg">
    <path d="M1.53845 0.499997C9.24623 0.499997 16.6843 5.57818 23.5307 14.9896C30.3692 24.3899 36.5484 38.0247 41.7464 54.9182C52.1405 88.699 58.5769 135.397 58.5769 187C58.5769 238.603 52.1405 285.301 41.7464 319.082C36.5484 335.975 30.3692 349.61 23.5307 359.011C16.6843 368.422 9.24625 373.5 1.53847 373.5C-6.16932 373.5 -13.6073 368.422 -20.4538 359.011C-27.2922 349.61 -33.4715 335.975 -38.6695 319.082C-49.0636 285.301 -55.5 238.603 -55.5 187C-55.5 135.397 -49.0636 88.699 -38.6695 54.9182C-33.4715 38.0247 -27.2923 24.39 -20.4538 14.9896C-13.6074 5.57818 -6.16933 0.499998 1.53845 0.499997Z" stroke="#080A0A"/>
    <path d="M116.616 0.499997C124.323 0.499997 131.761 5.57818 138.608 14.9896C145.446 24.3899 151.626 38.0247 156.824 54.9182C167.218 88.699 173.654 135.397 173.654 187C173.654 238.603 167.218 285.301 156.824 319.082C151.626 335.975 145.446 349.61 138.608 359.011C131.761 368.422 124.323 373.5 116.616 373.5C108.908 373.5 101.47 368.422 94.6234 359.011C87.7849 349.61 81.6057 335.975 76.4077 319.082C66.0136 285.301 59.5771 238.603 59.5771 187C59.5771 135.397 66.0136 88.699 76.4077 54.9182C81.6056 38.0247 87.7849 24.39 94.6234 14.9896C101.47 5.57818 108.908 0.499998 116.616 0.499997Z" stroke="#080A0A"/>
    <path d="M231.693 0.499997C239.401 0.499997 246.839 5.57818 253.685 14.9896C260.523 24.3899 266.703 38.0247 271.901 54.9182C282.295 88.699 288.731 135.397 288.731 187C288.731 238.603 282.295 285.301 271.901 319.082C266.703 335.975 260.523 349.61 253.685 359.011C246.839 368.422 239.401 373.5 231.693 373.5C223.985 373.5 216.547 368.422 209.7 359.011C202.862 349.61 196.683 335.975 191.485 319.082C181.091 285.301 174.654 238.603 174.654 187C174.654 135.397 181.091 88.699 191.485 54.9182C196.683 38.0247 202.862 24.39 209.7 14.9896C216.547 5.57818 223.985 0.499998 231.693 0.499997Z" stroke="#080A0A"/>
</svg>
