<svg class="Logo_logo__Fpa8_ DARK" width="169" height="24" viewBox="0 0 169 24" fill="none" xmlns="http://www.w3.org/2000/svg"><path d="M0 23.786H12.2169C17.3572 23.786 19.1527 22.0743 19.1527 17.26C19.1527 13.4443 18.2021 12.0892 15.1391 11.5899V11.4829C17.674 10.9123 18.5894 9.52155 18.5894 6.24071C18.5894 3.35216 17.8853 1.64042 16.3362 0.748887C15.3504 0.213969 14.0829 0 11.5832 0H0V23.786ZM4.50653 9.98514V3.78009H10.879C12.1465 3.78009 12.6394 3.85141 13.0619 4.02972C13.8012 4.42199 14.1181 5.17088 14.1181 6.70431C14.1181 8.34473 13.8364 9.12927 13.0971 9.55721C12.5338 9.87816 11.8648 9.98514 9.96365 9.98514H4.50653ZM4.50653 20.0059V13.373H10.2101C12.3577 13.373 12.9211 13.4086 13.4492 13.6582C14.3646 14.0862 14.6814 14.9064 14.6814 16.7964C14.6814 19.6493 14.0829 20.0059 9.40033 20.0059H4.50653Z" fill="white"></path><path d="M24.9881 0H21.0096V23.786H24.9881V0Z" fill="white"></path><path d="M34.9044 6.91828C31.4189 6.91828 29.9402 7.23923 28.7783 8.2734C27.5109 9.41456 27.018 11.1976 27.018 14.8351C27.018 18.9004 27.2644 20.4339 28.0742 21.7533C29.06 23.3938 30.926 24 34.7988 24C41.2065 24 42.5444 22.4666 42.5444 15.049C42.5444 11.2689 42.0867 9.48589 40.8544 8.30907C39.763 7.27489 38.2491 6.91828 34.9044 6.91828ZM34.7636 10.0565C38.0026 10.0565 38.4955 10.734 38.4955 15.1204C38.4955 20.1486 38.0378 20.8618 34.7284 20.8618C31.5245 20.8618 31.0668 20.1843 31.0668 15.2987C31.0668 10.734 31.5597 10.0565 34.7636 10.0565Z" fill="white"></path><path d="M55.0633 17.4383C55.0633 20.3982 54.6408 20.8618 51.789 20.8618C50.2399 20.8618 49.3597 20.6835 48.9372 20.2556C48.3035 19.6137 48.0571 18.2585 48.0571 15.5483C48.0571 10.6984 48.4795 10.0921 51.6834 10.0921C54.2887 10.0921 54.8873 10.627 54.8873 13.0163H58.7601C58.7601 8.23774 57.1757 6.91828 51.4722 6.91828C48.2683 6.91828 46.3319 7.56018 45.2757 9.02229C44.3251 10.3061 44.0082 11.9822 44.0082 15.4413C44.0082 19.5423 44.5011 21.3611 45.8742 22.5736C47.0712 23.6077 48.726 24 51.9298 24C55.6618 24 57.2109 23.5007 58.1967 21.9317C58.7601 21.0758 59.0065 19.8633 59.0065 18.0089V17.4383H55.0633Z" fill="white"></path><path d="M64.5783 0H60.5999V23.786H64.5783V16.4042H65.5289L70.8804 23.786H75.7742L68.8736 14.9777L74.6124 7.13225H70.0354L65.5993 13.6226H64.5783V0Z" fill="white"></path><path d="M110.691 0H106.114L102.664 13.052C102.382 14.0505 102.1 15.37 101.678 17.2244C101.466 18.1516 101.29 19.0788 101.114 20.0059H100.974C100.868 19.6493 100.798 19.2927 100.727 18.9718L100.41 17.581C99.9174 15.5483 99.7765 14.9064 99.2836 13.052L95.7629 0H90.517L86.9259 13.052C86.5034 14.5498 86.1865 15.7979 86.0105 16.5111C85.6232 18.1872 85.3416 19.3284 85.1655 20.0059H85.0247C84.1093 15.4056 83.8981 14.4071 83.546 13.052L80.1661 0H75.6244L81.7152 23.786H88.2285L91.5732 11.5899C91.9253 10.3774 92.207 9.2006 92.4886 8.05944L93.0167 5.7058H93.1928C94.0025 9.45022 94.073 9.77118 94.5659 11.5899L97.8049 23.786H104.389L110.691 0Z" fill="white"></path><path d="M114.485 11.9465C114.556 9.94948 115.084 9.55721 117.583 9.55721C120.259 9.55721 120.928 10.1991 120.928 12.838V15.5483H120.858C120.189 14.0505 119.062 13.6226 115.858 13.6226C111.457 13.6226 109.803 15.049 109.803 18.8291C109.803 22.6449 111.387 24 115.788 24C118.921 24 120.118 23.4294 120.999 21.5037H121.104L120.928 23.786H124.907V12.9094C124.907 8.27341 123.217 6.91828 117.443 6.91828C113.781 6.91828 112.056 7.38187 111.176 8.66568C110.648 9.41456 110.472 10.2348 110.472 11.9465H114.485ZM117.302 16.2972C120.154 16.2972 120.963 16.8321 120.963 18.7221C120.963 20.5765 120.118 21.1471 117.302 21.1471C114.485 21.1471 113.851 20.6835 113.851 18.6152C113.851 16.7608 114.556 16.2972 117.302 16.2972Z" fill="white"></path><path d="M131.507 0H127.529V23.786H131.507V0Z" fill="white"></path><path d="M138.114 0H134.136V23.786H138.114V0Z" fill="white"></path><path d="M151.34 18.4725C151.305 20.6122 150.777 21.0045 147.89 21.0045C144.862 21.0045 144.158 20.2199 144.158 16.8321V16.1902H155.283C155.283 12.5171 155.213 11.6969 154.861 10.5201C154.016 7.88113 152.185 6.91828 147.89 6.91828C144.58 6.91828 142.749 7.4532 141.588 8.737C140.531 9.94948 140.144 11.7325 140.144 15.37C140.144 22.4309 141.623 24 148.207 24C153.628 24 155.283 22.7162 155.283 18.4725H151.34ZM151.375 13.6939H144.193C144.228 12.2318 144.263 11.7682 144.475 11.2333C144.897 10.1991 145.672 9.91382 147.819 9.91382C150.777 9.91382 151.305 10.4131 151.375 13.052V13.6939Z" fill="white"></path><path d="M168.331 7.13225H162.064V3.42348H158.086V7.13225H155.938V10.1634H158.086V19.0788C158.086 20.6835 158.156 21.2541 158.508 21.9317C159.248 23.3938 160.621 24 163.367 24C165.902 24 167.275 23.5364 168.12 22.4309C168.789 21.5037 169 20.6478 169 18.3299V17.367H165.655C165.691 17.7236 165.691 17.9019 165.691 18.0446C165.691 20.3269 165.303 20.8975 163.754 20.8975C162.381 20.8975 162.064 20.4339 162.064 18.5082V10.1634H168.331V7.13225Z" fill="white"></path></svg>