<svg width="41" height="41" viewBox="0 0 41 41" fill="none" xmlns="http://www.w3.org/2000/svg">
<path d="M40.1738 11.3964C40.1738 17.3421 35.3483 22.162 29.3957 22.162C28.355 22.162 27.3488 22.0147 26.3968 21.7398L26.3909 21.7484C26.3592 21.7349 26.3271 21.722 26.2947 21.7098C26.1996 21.6813 26.1052 21.6516 26.0113 21.6206C25.8025 21.5677 25.5839 21.5395 25.3587 21.5395C23.8984 21.5395 22.7146 22.7219 22.7146 24.1805C22.7146 25.3144 23.43 26.2813 24.4345 26.6557C24.5206 26.6836 24.6071 26.7108 24.6938 26.7373C24.7949 26.7635 24.8984 26.7838 25.0038 26.7979L24.9904 26.8247C26.3902 27.2227 27.868 27.4358 29.3957 27.4358C30.0085 27.4358 30.6133 27.4015 31.2083 27.3348C30.101 34.8568 23.6128 40.6309 15.7744 40.6309C7.15845 40.6309 0.173828 33.6544 0.173828 25.0485C0.173828 17.2376 5.9276 10.7689 13.4326 9.64049C13.3698 10.2172 13.3375 10.803 13.3375 11.3964C13.3375 13.7986 13.8662 16.0775 14.8138 18.1233C15.2665 18.9292 16.1302 19.4738 17.1212 19.4738C18.5815 19.4738 19.7653 18.2914 19.7653 16.8329C19.7653 16.5739 19.728 16.3237 19.6585 16.0872C19.6679 16.0843 19.6775 16.0813 19.6874 16.0783C19.0018 14.6627 18.6175 13.0744 18.6175 11.3964C18.6175 10.8855 18.6531 10.3828 18.7221 9.89086C18.7288 9.8431 18.7358 9.79544 18.7431 9.74788C19.5374 4.58477 24.0043 0.630859 29.3957 0.630859C35.3483 0.630859 40.1738 5.45078 40.1738 11.3964Z" fill="#F4F4F4"/>
</svg>
