<svg width="36" height="32" viewBox="0 0 36 32" fill="none" xmlns="http://www.w3.org/2000/svg">
<path d="M30.542 2.92383L19.3447 11.2535L21.4271 6.33762L30.542 2.92383Z" fill="#E17726" stroke="#E17726" stroke-linecap="round" stroke-linejoin="round"/>
<path d="M4.66504 2.92383L15.794 11.3218L13.814 6.33762L4.66504 2.92383Z" fill="#E27625" stroke="#E27625" stroke-linecap="round" stroke-linejoin="round"/>
<path d="M26.5139 22.2109L23.5098 26.7854L29.9277 28.5606L31.737 22.3134L26.5139 22.2109Z" fill="#E27625" stroke="#E27625" stroke-linecap="round" stroke-linejoin="round"/>
<path d="M3.50488 22.3134L5.31419 28.5606L11.698 26.7854L8.72799 22.2109L3.50488 22.3134Z" fill="#E27625" stroke="#E27625" stroke-linecap="round" stroke-linejoin="round"/>
<path d="M11.3567 14.4963L9.58154 17.1932L15.8971 17.4663L15.6922 10.6387L11.3567 14.4963Z" fill="#E27625" stroke="#E27625" stroke-linecap="round" stroke-linejoin="round"/>
<path d="M23.8851 14.4962L19.4813 10.5703L19.3447 17.4662L25.6602 17.1931L23.8851 14.4962Z" fill="#E27625" stroke="#E27625" stroke-linecap="round" stroke-linejoin="round"/>
<path d="M11.6978 26.7856L15.5212 24.9421L12.2098 22.3477L11.6978 26.7856Z" fill="#E27625" stroke="#E27625" stroke-linecap="round" stroke-linejoin="round"/>
<path d="M19.7202 24.9421L23.5095 26.7856L22.9975 22.3477L19.7202 24.9421Z" fill="#E27625" stroke="#E27625" stroke-linecap="round" stroke-linejoin="round"/>
<path d="M23.51 26.7868L19.7207 24.9434L20.0279 27.4013L19.9938 28.4596L23.51 26.7868Z" fill="#D5BFB2" stroke="#D5BFB2" stroke-linecap="round" stroke-linejoin="round"/>
<path d="M11.6982 26.7868L15.2486 28.4596L15.2145 27.4013L15.5217 24.9434L11.6982 26.7868Z" fill="#D5BFB2" stroke="#D5BFB2" stroke-linecap="round" stroke-linejoin="round"/>
<path d="M15.3169 20.7095L12.1421 19.7878L14.3611 18.7637L15.3169 20.7095Z" fill="#233447" stroke="#233447" stroke-linecap="round" stroke-linejoin="round"/>
<path d="M19.9248 20.7095L20.8465 18.7637L23.0996 19.7878L19.9248 20.7095Z" fill="#233447" stroke="#233447" stroke-linecap="round" stroke-linejoin="round"/>
<path d="M11.698 26.7854L12.2442 22.2109L8.72803 22.3134L11.698 26.7854Z" fill="#CC6228" stroke="#CC6228" stroke-linecap="round" stroke-linejoin="round"/>
<path d="M22.9976 22.2109L23.5096 26.7854L26.5138 22.3134L22.9976 22.2109Z" fill="#CC6228" stroke="#CC6228" stroke-linecap="round" stroke-linejoin="round"/>
<path d="M25.6602 17.1934L19.3447 17.4665L19.9251 20.7096L20.8468 18.7637L23.0999 19.7878L25.6602 17.1934Z" fill="#CC6228" stroke="#CC6228" stroke-linecap="round" stroke-linejoin="round"/>
<path d="M12.1419 19.7878L14.3609 18.7637L15.3167 20.7096L15.8971 17.4665L9.58154 17.1934L12.1419 19.7878Z" fill="#CC6228" stroke="#CC6228" stroke-linecap="round" stroke-linejoin="round"/>
<path d="M9.58154 17.1934L12.2102 22.3482L12.1419 19.7878L9.58154 17.1934Z" fill="#E27525" stroke="#E27525" stroke-linecap="round" stroke-linejoin="round"/>
<path d="M23.1 19.7878L22.9976 22.3482L25.6603 17.1934L23.1 19.7878Z" fill="#E27525" stroke="#E27525" stroke-linecap="round" stroke-linejoin="round"/>
<path d="M15.8972 17.4668L15.3169 20.7099L16.0338 24.5675L16.2045 19.4809L15.8972 17.4668Z" fill="#E27525" stroke="#E27525" stroke-linecap="round" stroke-linejoin="round"/>
<path d="M19.3444 17.4668L19.0371 19.4809L19.1737 24.5675L19.9247 20.7099L19.3444 17.4668Z" fill="#E27525" stroke="#E27525" stroke-linecap="round" stroke-linejoin="round"/>
<path d="M19.9258 20.7108L19.1748 24.5684L19.721 24.9439L22.9983 22.3494L23.1007 19.7891L19.9258 20.7108Z" fill="#F5841F" stroke="#F5841F" stroke-linecap="round" stroke-linejoin="round"/>
<path d="M12.1421 19.7891L12.2104 22.3494L15.5217 24.9439L16.0338 24.5684L15.3169 20.7108L12.1421 19.7891Z" fill="#F5841F" stroke="#F5841F" stroke-linecap="round" stroke-linejoin="round"/>
<path d="M19.9938 28.4599L20.0279 27.4016L19.7207 27.1626H15.4876L15.2145 27.4016L15.2486 28.4599L11.6982 26.7871L12.9272 27.8112L15.4534 29.5523H19.7548L22.281 27.8112L23.51 26.7871L19.9938 28.4599Z" fill="#C0AC9D" stroke="#C0AC9D" stroke-linecap="round" stroke-linejoin="round"/>
<path d="M19.7206 24.9439L19.1744 24.5684H16.0337L15.5216 24.9439L15.2144 27.4018L15.4875 27.1628H19.7206L20.0278 27.4018L19.7206 24.9439Z" fill="#08090A" stroke="#08090A" stroke-linecap="round" stroke-linejoin="round"/>
<path d="M31.0204 11.7997L31.9762 7.19107L30.5424 2.92383L19.7207 10.9804L23.8855 14.4966L29.7573 16.2035L31.0545 14.7014L30.5083 14.2918L31.3959 13.4725L30.7131 12.9262L31.6007 12.2435L31.0204 11.7997Z" fill="#763E1A" stroke="#763E1A" stroke-linecap="round" stroke-linejoin="round"/>
<path d="M3.26611 7.19107L4.22197 11.7997L3.60749 12.2435L4.49508 12.9262L3.81232 13.4725L4.73404 14.2918L4.1537 14.7014L5.45094 16.2035L11.3568 14.4966L15.5216 10.9804L4.66577 2.92383L3.26611 7.19107Z" fill="#763E1A" stroke="#763E1A" stroke-linecap="round" stroke-linejoin="round"/>
<path d="M29.7569 16.203L23.8851 14.4961L25.6603 17.193L22.9976 22.3478L26.5138 22.3137H31.7369L29.7569 16.203Z" fill="#F5841F" stroke="#F5841F" stroke-linecap="round" stroke-linejoin="round"/>
<path d="M11.3566 14.4961L5.45075 16.203L3.50488 22.3137H8.72799L12.2101 22.3478L9.58144 17.193L11.3566 14.4961Z" fill="#F5841F" stroke="#F5841F" stroke-linecap="round" stroke-linejoin="round"/>
<path d="M19.3443 17.4669L19.7198 10.9807L21.4267 6.33789H13.814L15.5209 10.9807L15.8964 17.4669L16.0329 19.5151V24.5675H19.1736V19.5151L19.3443 17.4669Z" fill="#F5841F" stroke="#F5841F" stroke-linecap="round" stroke-linejoin="round"/>
<g style="mix-blend-mode:color">
<rect width="36.4138" height="31.8621" fill="#E9EBE2"/>
</g>
</svg>
