<svg width="31" height="31" viewBox="0 0 31 31" fill="none" xmlns="http://www.w3.org/2000/svg">
<path d="M20.0768 0H10.2261C4.5784 0 0 4.58045 0 10.2307V20.0858C0 25.7361 4.5784 30.3166 10.2261 30.3166H20.0768C25.7246 30.3166 30.303 25.7361 30.303 20.0858V10.2307C30.303 4.58045 25.7246 0 20.0768 0Z" fill="#08090A"/>
<path d="M0.313477 15.2448C0.313477 6.99899 6.99502 0.314453 15.2371 0.314453C23.4794 0.314453 30.1608 6.99899 30.1608 15.2448C30.1608 23.4907 23.4794 30.1751 15.2371 30.1751C6.99502 30.1751 0.313477 23.4907 0.313477 15.2448Z" fill="#08090A"/>
<path d="M15.2461 6.32031C18.2576 8.83668 21.7111 8.68141 22.6979 8.68141C22.4821 22.9919 20.8373 20.1542 15.2461 24.1668C9.65475 20.1542 8.02053 22.9919 7.80469 8.68141C8.7811 8.68141 12.2346 8.83668 15.2461 6.32031Z" stroke="#E9EBE2" stroke-width="2" stroke-miterlimit="10" stroke-linecap="round" stroke-linejoin="round"/>
</svg>
