<svg width="29" height="27" viewBox="0 0 29 27" fill="none" xmlns="http://www.w3.org/2000/svg">
<path d="M18.2322 0H10.7678C10.5114 0 10.3119 0.217671 10.3119 0.478876C10.1552 7.85066 6.49421 14.8451 0.183598 19.7935C-0.0158346 19.9531 -0.0585708 20.2434 0.083881 20.461L4.45715 26.8025C4.5996 27.0202 4.89875 27.0637 5.09818 26.9041C9.0441 23.8277 12.2208 20.1128 14.5 16.0061C16.7792 20.1273 19.9559 23.8277 23.9018 26.9041C24.1013 27.0637 24.4004 27.0202 24.5429 26.8025L28.9161 20.461C29.0586 20.2434 29.0158 19.9531 28.8164 19.7935C22.5058 14.8451 18.8448 7.85066 18.6881 0.478876C18.6881 0.20316 18.4887 0 18.2322 0Z" fill="#08090A"/>
</svg>
