<svg width="34" height="33" viewBox="0 0 34 33" fill="none" xmlns="http://www.w3.org/2000/svg">
<path d="M33.5842 5.15751L31.372 5.02878C31.2143 5.01857 31.0654 4.95284 30.9521 4.84333C30.8386 4.73383 30.7681 4.58772 30.7531 4.43117L30.5592 2.39466C30.553 2.36067 30.535 2.3299 30.5086 2.30774C30.4819 2.28558 30.4483 2.27344 30.4137 2.27344C30.379 2.27344 30.3453 2.28558 30.3188 2.30774C30.2922 2.3299 30.2742 2.36067 30.2681 2.39466L30.0695 4.43117C30.0564 4.58841 29.9864 4.73556 29.8727 4.84544C29.7588 4.9553 29.609 5.02044 29.4507 5.02878L27.2384 5.1667C27.2043 5.17279 27.1734 5.19061 27.1512 5.21709C27.1289 5.24356 27.1167 5.27699 27.1167 5.31152C27.1167 5.34604 27.1289 5.37945 27.1512 5.40594C27.1734 5.4324 27.2043 5.45024 27.2384 5.45631L29.4507 5.58503C29.608 5.59614 29.7563 5.66219 29.8696 5.77152C29.9828 5.88085 30.0537 6.02644 30.0695 6.18266L30.2635 8.21917C30.2696 8.25316 30.2876 8.28393 30.3142 8.30609C30.3407 8.32824 30.3743 8.34037 30.4091 8.34037C30.4437 8.34037 30.4773 8.32824 30.5039 8.30609C30.5304 8.28393 30.5484 8.25316 30.5545 8.21917L30.7485 6.18266C30.7635 6.02611 30.834 5.88 30.9475 5.7705C31.0608 5.66099 31.2096 5.59524 31.3674 5.58503L33.5842 5.44713C33.6183 5.44104 33.6492 5.42321 33.6715 5.39673C33.6938 5.37026 33.7059 5.33684 33.7059 5.30231C33.7059 5.26779 33.6938 5.23438 33.6715 5.20789C33.6492 5.18142 33.6183 5.16358 33.5842 5.15751Z" fill="#08090A"/>
<path fill-rule="evenodd" clip-rule="evenodd" d="M28.933 12.7892L29.2979 13.0467C29.6201 13.2631 29.8719 13.5682 30.023 13.9247C30.0958 14.1247 30.1241 14.338 30.1061 14.5498C30.0897 14.7153 30.0635 14.8795 30.0276 15.0417C29.9527 15.3619 29.8363 15.6709 29.6812 15.9611C29.5992 16.1097 29.505 16.2512 29.3995 16.3842L29.3488 16.4531L29.4134 16.8622C29.4335 17.0255 29.4442 17.1897 29.4457 17.3541C29.4415 18.0059 29.2943 18.6489 29.0142 19.2381C28.7341 19.8274 28.3282 20.3485 27.8246 20.7652L27.7646 20.8158L27.6906 20.8388C27.045 21.0692 26.3827 21.2505 25.7093 21.3811C25.0219 21.5252 24.3193 21.5855 23.6172 21.5605H23.5711H23.5156C22.1277 21.1218 20.6974 20.829 19.2482 20.6871C19.1558 20.6788 19.0622 20.6716 18.9675 20.6642C18.6883 20.6426 18.3994 20.6202 18.1028 20.5721C17.7109 20.511 17.3258 20.4125 16.9528 20.2779C16.305 20.0539 15.6249 19.936 14.9392 19.9285H14.916C14.7161 20.2387 14.5829 20.5867 14.5249 20.9506C14.4669 21.3147 14.4853 21.6866 14.5789 22.0431C14.7558 22.9365 15.0671 23.7983 15.5027 24.5992C16.0022 25.4415 16.4494 26.3135 16.842 27.2103C17.0538 27.6856 17.2088 28.184 17.3038 28.6951C17.4037 29.2527 17.3625 29.8262 17.1838 30.364L16.9575 31.003L16.4078 30.5984C16.3251 30.5396 16.237 30.4888 16.1445 30.4467C16.1024 30.7566 16.0408 31.0638 15.9598 31.3661C15.805 31.8931 15.5831 32.3984 15.2995 32.8693C14.923 29.8846 12.8258 29.0294 10.7761 28.1937C9.85833 27.8194 8.95005 27.449 8.2101 26.8931C5.81776 25.0957 5.62378 22.9948 7.10168 19.3171C7.55281 18.186 7.88104 17.0101 8.08079 15.8095C8.12236 15.5382 8.17317 15.2717 8.23321 15.005C8.23821 14.9677 8.24592 14.9309 8.25629 14.8946L8.29786 14.7062C8.30326 14.8271 8.30669 14.9477 8.3101 15.068C8.31838 15.3588 8.32658 15.6473 8.36253 15.9336C8.38475 16.3242 8.46249 16.7095 8.59344 17.0782C8.65294 17.2348 8.74233 17.3784 8.85669 17.5013C8.88943 17.5393 8.9254 17.5725 8.96745 17.6113C8.99658 17.6381 9.02862 17.6677 9.06452 17.7035C9.12551 17.773 9.1919 17.8376 9.26311 17.8966C9.55699 18.1205 9.88423 18.2973 10.233 18.4207C10.9701 18.677 11.7366 18.8406 12.5145 18.908C13.2627 18.9953 14.0248 19.0274 14.7913 19.0274H14.9068C15.7021 19.0332 16.4912 19.1666 17.2438 19.4228C17.9156 19.6489 18.6177 19.7729 19.3267 19.7906C20.8177 19.9335 22.2897 20.2309 23.7188 20.6778C24.328 20.6939 24.9371 20.6399 25.5339 20.517C25.9588 20.4341 26.3791 20.3193 26.7947 20.1952C27.723 19.8044 28.3372 18.747 27.081 18.885C26.7845 18.9053 26.4897 18.9468 26.199 19.0091C25.972 19.0504 25.7476 19.1328 25.5074 19.2209C25.2931 19.2996 25.0661 19.383 24.8134 19.4458C24.3014 19.5656 23.7673 19.5529 23.2616 19.409C22.8202 19.2273 22.3525 19.1172 21.8761 19.0827C22.0979 18.9561 22.346 18.8821 22.6012 18.8666C22.7846 18.848 22.9491 18.8545 23.1076 18.8606C23.1845 18.8636 23.26 18.8666 23.3355 18.8666C23.7682 18.921 24.2069 18.9023 24.6333 18.8114C24.8485 18.7501 25.0681 18.6323 25.3053 18.5051C25.4956 18.4028 25.6972 18.2946 25.9172 18.2046C26.3986 18.0029 26.9144 17.8952 27.4367 17.8873H27.7507C28.1155 17.3817 28.425 16.8208 28.305 16.3612C28.1628 16.1715 27.9663 16.0289 27.7415 15.952C27.6819 15.9313 27.5657 15.9011 27.4149 15.862C26.8648 15.7194 25.8551 15.4577 25.46 15.097C25.1643 14.7981 25.3399 14.1959 26.5499 13.9477C27.1066 13.8514 27.6741 13.8344 28.2356 13.8971C28.4277 13.9305 28.6252 13.913 28.8084 13.8465L28.739 13.7867L28.3881 13.5386L28.0324 13.2719L26.6469 12.2192C26.4207 12.0491 26.1805 11.8744 25.9588 11.7319L25.8479 11.6675L25.6309 11.5756C25.4876 11.5158 25.3445 11.4468 25.2013 11.3733C24.7591 11.1389 24.3493 10.8484 23.9821 10.509C22.6289 9.37814 21.114 6.64748 20.7169 5.75563C20.3998 5.0698 19.8412 4.5235 19.1466 4.22021C19.4875 4.20127 19.8283 4.26018 20.143 4.39244C20.4575 4.52471 20.7376 4.7268 20.9617 4.98331C21.0779 5.07926 21.2951 5.39218 21.5574 5.7701C22.0868 6.53293 22.8 7.56063 23.2385 7.60366C23.4742 7.59487 23.7082 7.55939 23.9359 7.49792C23.7177 7.28892 23.5183 7.06126 23.3401 6.81756C23.1028 6.506 22.9192 6.18423 22.7418 5.87315C22.681 5.76655 22.6209 5.6612 22.5596 5.55795C22.3557 5.17048 22.1094 4.80663 21.8252 4.47304C21.76 4.40449 21.6906 4.34 21.6174 4.27995C21.5408 4.22323 21.4588 4.17398 21.3727 4.13286C21.1832 4.03632 20.9893 3.95355 20.7492 3.86161C20.509 3.76967 20.2966 3.68693 20.0471 3.5628L19.4005 3.24102L18.1074 2.61581C17.2544 2.20804 16.3767 1.85337 15.4795 1.55388C14.5911 1.26294 13.6748 1.0642 12.7454 0.960847C12.5248 0.931662 12.3028 0.914786 12.0804 0.910286C11.9016 0.905509 11.7242 0.943333 11.5631 1.02061C11.4783 1.05766 11.3908 1.10393 11.2967 1.15363C11.1807 1.21494 11.0547 1.28149 10.9119 1.34241L10.2699 1.63662C9.4349 2.05495 8.63758 2.54405 7.88683 3.09851C7.28255 3.49158 6.74866 3.98258 6.30731 4.55118C6.96101 4.52126 7.6145 4.61485 8.23321 4.82702C7.40084 4.81399 6.57161 4.93192 5.77619 5.1764C5.38668 5.29125 5.00553 5.43257 4.63544 5.59933C4.26516 5.75366 3.90833 5.93816 3.56859 6.15098C3.23311 6.34357 2.92286 6.57674 2.6449 6.84514C2.53128 6.95879 2.44314 7.0951 2.38627 7.24509C2.30775 7.41519 2.23385 7.60366 2.16457 7.79214C1.89763 8.56576 1.68468 9.35682 1.52724 10.1597C1.19337 11.7582 1.06917 13.3931 1.15776 15.0233C1.22369 16.3398 1.56837 17.6276 2.16919 18.8022C2.73726 18.062 3.29147 17.3036 3.82721 16.5359C4.51075 15.5382 5.16193 14.5085 5.74386 13.4696C6.04774 12.9271 6.31636 12.3594 6.58785 11.7857C6.83627 11.2608 7.0871 10.7308 7.36954 10.2102C7.65617 9.65328 7.99154 9.12256 8.37175 8.62423C8.568 8.36683 8.79611 8.13515 9.05066 7.93466C9.30149 7.72678 9.61179 7.60292 9.93741 7.58069C8.90288 8.5047 8.09465 10.9871 7.29566 13.7684C6.64447 16.0256 4.4507 21.1743 3.06516 21.2984C2.52481 21.3307 2.33084 21.0732 1.96136 20.5491L1.66117 20.1353C1.12924 19.3977 0.723505 18.5775 0.460369 17.7081C0.219077 16.8562 0.0719566 15.9806 0.0216188 15.097C-0.0208228 14.2278 -0.000756091 13.3567 0.0816607 12.4904C0.176892 11.632 0.3234 10.78 0.520411 9.93899C0.713468 9.09519 0.965007 8.26573 1.27322 7.45656C1.35635 7.25428 1.43948 7.05201 1.54108 6.84514C1.59675 6.72927 1.66 6.61716 1.73044 6.50955C1.80832 6.40167 1.89482 6.30019 1.98908 6.20614C2.32606 5.88723 2.70707 5.61789 3.1206 5.40625C3.80749 5.05222 4.54386 4.80272 5.30511 4.6661C5.51907 4.19249 5.8127 3.75874 6.17338 3.38353C6.52569 3.01889 6.9089 2.68513 7.31876 2.38595C8.08044 1.77705 8.90572 1.25148 9.78037 0.818338C9.99282 0.712605 10.2699 0.58849 10.4547 0.510339C10.5451 0.472107 10.6398 0.422871 10.7434 0.36909C10.8515 0.312942 10.9691 0.251841 11.1013 0.193139C11.3787 0.0638001 11.6816 -0.00217424 11.988 5.46515e-05C12.2459 0.00320881 12.5035 0.0216275 12.7593 0.0552176C13.7514 0.166514 14.7296 0.379102 15.6781 0.68962C16.6122 0.999227 17.5253 1.36774 18.4123 1.79292L19.7238 2.42733L20.3751 2.74913C20.5194 2.82679 20.7032 2.89788 20.8988 2.9735C20.9348 2.98741 20.9712 3.00147 21.0078 3.01575C21.2434 3.1077 21.4651 3.20424 21.7051 3.32376C21.8356 3.38892 21.9607 3.46424 22.0793 3.54902C22.1941 3.64076 22.3021 3.74063 22.4026 3.84783C22.7574 4.22814 23.0673 4.64768 23.3263 5.09824L23.3574 5.15201C23.8349 5.9775 24.2787 6.74455 24.9658 7.19451L25.5154 7.55769V7.61746L25.363 7.88868L24.8549 8.0174C24.7583 8.04701 24.6772 8.11298 24.6287 8.20129C24.6046 8.24521 24.5903 8.29385 24.5871 8.34379C24.5818 8.44333 24.5818 8.54308 24.5871 8.64261C24.5878 8.79847 24.5645 8.95353 24.5179 9.10232C24.4937 9.18491 24.4665 9.25515 24.4434 9.31482C24.4266 9.35811 24.412 9.39585 24.4024 9.42872C24.3886 9.46069 24.3815 9.49509 24.3815 9.52984C24.3815 9.56461 24.3886 9.59902 24.4024 9.63098C24.7629 10.0032 25.1827 10.3139 25.6447 10.5504C25.7602 10.6148 25.8803 10.6699 26.0049 10.7251L26.1944 10.7987C26.2893 10.8415 26.3804 10.8922 26.4668 10.9504C26.713 11.1055 26.9153 11.2571 27.1259 11.4147C27.1523 11.4345 27.1789 11.4544 27.2057 11.4744L28.5913 12.5318L28.933 12.7892ZM16.9113 9.87463C16.7931 9.88601 16.674 9.88601 16.5557 9.87463C15.7614 9.82866 15.3734 9.2862 15.5027 8.72995C15.632 8.1737 15.5535 7.98982 15.3964 7.98982C15.153 8.07454 14.9438 8.23591 14.8007 8.44953H14.7683C14.76 8.45098 14.7513 8.45048 14.7431 8.44807C14.735 8.44565 14.7275 8.44139 14.7212 8.43561C14.7148 8.42982 14.7101 8.42267 14.7071 8.41472C14.704 8.40676 14.7028 8.39823 14.7037 8.38976C14.8699 7.23589 15.5489 7.18532 15.8491 7.18532C16.7653 7.25314 17.673 7.40707 18.5601 7.64504C18.5858 7.64915 18.6097 7.66088 18.6286 7.67872C18.6474 7.69655 18.6604 7.71965 18.6659 7.74498C18.6714 7.77031 18.6692 7.7967 18.6593 7.82071C18.6494 7.8447 18.6326 7.8652 18.611 7.87948C18.4794 7.99474 18.3809 8.14276 18.3256 8.30836C18.2705 8.47397 18.2605 8.6512 18.2969 8.82189C18.3523 9.36435 17.7057 9.78729 16.9113 9.87463Z" fill="#08090A"/>
</svg>
