<svg width="31" height="32" viewBox="0 0 31 32" fill="none" xmlns="http://www.w3.org/2000/svg">
<path d="M18.5882 17.6734C16.1902 19.1628 12.9805 19.9299 9.72974 19.7661C6.9966 19.632 4.75499 18.649 3.3996 17.0329C2.20804 15.5882 1.74631 13.6817 2.05909 11.4885C2.16522 10.7596 2.3823 10.0513 2.70328 9.38834L2.74796 9.29525C3.87287 7.12926 5.54253 5.29356 7.59276 3.96877C9.64261 2.64398 12.0019 1.8758 14.439 1.73977C16.8761 1.60379 19.3061 2.10465 21.4908 3.19314C23.6754 4.28163 25.5391 5.92017 26.8982 7.94753C28.2573 9.97489 29.065 12.3212 29.2419 14.7555C29.4187 17.1898 28.9589 19.6283 27.9073 21.8308C26.8558 24.0333 25.2487 25.9242 23.2446 27.3172C21.2402 28.7102 18.9081 29.5573 16.4769 29.7751L16.6259 31.4843C19.3553 31.2411 21.9741 30.2912 24.2247 28.7281C26.4752 27.1649 28.2801 25.0421 29.4604 22.5692C30.6412 20.0965 31.1573 17.3588 30.9581 14.6258C30.7585 11.8929 29.8507 9.25898 28.3236 6.98367C26.7969 4.70835 24.7035 2.87008 22.2497 1.64992C19.7962 0.429805 17.0671 -0.130077 14.3314 0.0254211C11.5956 0.180919 8.94741 1.04647 6.64808 2.53678C4.34837 4.02708 2.47688 6.09074 1.21756 8.52446L1.15798 8.64734C0.759923 9.47004 0.491078 10.3492 0.361124 11.2539C-0.0112376 13.9274 0.565919 16.3068 2.07398 18.1388C3.72355 20.1421 6.40828 21.3337 9.62921 21.4901C13.5502 21.6874 17.4488 20.6188 20.2154 18.6527L18.5882 17.6734Z" fill="#08090A"/>
<path d="M21.8688 19.6172C20.3086 20.9726 16.6818 23.4302 10.6644 23.7653C3.92841 24.1377 1.12081 21.9482 1.09474 21.9258L0.551094 22.5961L1.09847 21.937L0 23.2552C0.119156 23.3557 2.81132 25.5303 9.13402 25.5303C9.65161 25.5303 10.1953 25.5303 10.7613 25.4856C18.0335 25.0797 22.0289 21.9072 23.4216 20.5518L21.8688 19.6172Z" fill="#08090A"/>
<path d="M24.788 21.3899C23.8653 22.6027 22.73 23.6371 21.4368 24.4433C16.8791 27.3849 11.0814 27.7647 7.02265 27.5599L6.93701 29.2765C7.61843 29.31 8.27379 29.3249 8.91053 29.3249C20.3569 29.3249 24.9817 24.1119 26.2738 22.25L24.7843 21.375" fill="#08090A"/>
<path d="M24.3525 14.8926C25.1114 14.8926 25.7265 14.2774 25.7265 13.5185C25.7265 12.7597 25.1114 12.1445 24.3525 12.1445C23.5937 12.1445 22.9785 12.7597 22.9785 13.5185C22.9785 14.2774 23.5937 14.8926 24.3525 14.8926Z" fill="#08090A"/>
</svg>
